<?xml version="1.0" encoding="utf-8"?>
<svg version="1.1" xmlns:xlink="http://www.w3.org/1999/xlink" width="18px" height="22px" xmlns="http://www.w3.org/2000/svg">
  <g transform="matrix(1 0 0 1 -104 -626 )">
    <path d="M 18 11  C 18 4.92421875000001  13.97109375 0  9 0  C 4.02890625000001 0  0 4.92421875000001  0 11  L 0 21.3125  C 0 21.6934895833333  0.250781250000003 22  0.5625 22  L 4.875 22  C 5.70234375 22  6.375 21.1778645833333  6.375 20.1666666666667  L 6.375 14.2083333333333  C 6.375 13.1971354166667  5.70234375 12.375  4.875 12.375  L 1.6875 12.375  L 1.6875 11  C 1.6875 6.06432291666667  4.96171875 2.0625  9 2.0625  C 13.03828125 2.0625  16.3125 6.06432291666667  16.3125 11  L 16.3125 12.375  L 13.125 12.375  C 12.29765625 12.375  11.625 13.1971354166667  11.625 14.2083333333333  L 11.625 20.1666666666667  C 11.625 21.1778645833333  12.29765625 22  13.125 22  L 17.4375 22  C 17.74921875 22  18 21.6934895833333  18 21.3125  L 18 11  Z M 1.6875 14.4375  L 4.6875 14.4375  L 4.6875 19.9375  L 1.6875 19.9375  L 1.6875 14.4375  Z M 16.3125 14.4375  L 16.3125 19.9375  L 13.3125 19.9375  L 13.3125 14.4375  L 16.3125 14.4375  Z " fill-rule="nonzero" fill="#d7d7d7" stroke="none" transform="matrix(1 0 0 1 104 626 )" />
  </g>
</svg>