<?xml version="1.0" encoding="utf-8"?>
<svg version="1.1" xmlns:xlink="http://www.w3.org/1999/xlink" width="18px" height="22px" xmlns="http://www.w3.org/2000/svg">
  <g transform="matrix(1 0 0 1 -176 -626 )">
    <path d="M 13.546875 0.834821428571429  L 17.203125 4.66517857142857  C 17.421875 4.89434523809524  17.609375 5.20535714285714  17.765625 5.59821428571429  C 17.921875 5.99107142857143  18 6.35119047619048  18 6.67857142857143  L 18 20.8214285714286  C 18 21.1488095238095  17.890625 21.4270833333333  17.671875 21.65625  C 17.453125 21.8854166666667  17.1875 22  16.875 22  L 1.125 22  C 0.8125 22  0.546875 21.8854166666667  0.328125 21.65625  C 0.109375 21.4270833333333  0 21.1488095238095  0 20.8214285714286  L 0 1.17857142857143  C 0 0.851190476190476  0.109375 0.572916666666666  0.328125 0.34375  C 0.546875 0.114583333333334  0.8125 0  1.125 0  L 11.625 0  C 11.9375 0  12.28125 0.081845238095239  12.65625 0.245535714285715  C 13.03125 0.40922619047619  13.328125 0.605654761904761  13.546875 0.834821428571429  Z M 12.48046875 1.93973214285714  C 12.38671875 1.84151785714286  12.2265625 1.75148809523809  12 1.66964285714286  L 12 6.28571428571429  L 16.40625 6.28571428571429  C 16.328125 6.04836309523809  16.2421875 5.88058035714286  16.1484375 5.78236607142857  L 12.48046875 1.93973214285714  Z M 1.5 20  L 16.5 20  L 16.5 7.85714285714286  L 11.625 7.85714285714286  C 11.3125 7.85714285714286  11.046875 7.74255952380952  10.828125 7.51339285714286  C 10.609375 7.28422619047619  10.5 7.00595238095238  10.5 6.67857142857143  L 10.5 1.57142857142857  L 1.5 1.57142857142857  L 1.5 20  Z M 4.5 10.6071428571429  L 4.5 9.82142857142857  C 4.5 9.70684523809524  4.53515625 9.61272321428572  4.60546875 9.5390625  C 4.67578125 9.46540178571428  4.765625 9.42857142857143  4.875 9.42857142857143  L 13.125 9.42857142857143  C 13.234375 9.42857142857143  13.32421875 9.46540178571428  13.39453125 9.5390625  C 13.46484375 9.61272321428572  13.5 9.70684523809524  13.5 9.82142857142857  L 13.5 10.6071428571429  C 13.5 10.7217261904762  13.46484375 10.8158482142857  13.39453125 10.8895089285714  C 13.32421875 10.9631696428571  13.234375 11  13.125 11  L 4.875 11  C 4.765625 11  4.67578125 10.9631696428571  4.60546875 10.8895089285714  C 4.53515625 10.8158482142857  4.5 10.7217261904762  4.5 10.6071428571429  Z M 4.875 12.5714285714286  L 13.125 12.5714285714286  C 13.234375 12.5714285714286  13.32421875 12.6082589285714  13.39453125 12.6819196428571  C 13.46484375 12.7555803571429  13.5 12.8497023809524  13.5 12.9642857142857  L 13.5 13.75  C 13.5 13.8645833333333  13.46484375 13.9587053571429  13.39453125 14.0323660714286  C 13.32421875 14.1060267857143  13.234375 14.1428571428571  13.125 14.1428571428571  L 4.875 14.1428571428571  C 4.765625 14.1428571428571  4.67578125 14.1060267857143  4.60546875 14.0323660714286  C 4.53515625 13.9587053571429  4.5 13.8645833333333  4.5 13.75  L 4.5 12.9642857142857  C 4.5 12.8497023809524  4.53515625 12.7555803571429  4.60546875 12.6819196428571  C 4.67578125 12.6082589285714  4.765625 12.5714285714286  4.875 12.5714285714286  Z M 4.875 15.7142857142857  L 13.125 15.7142857142857  C 13.234375 15.7142857142857  13.32421875 15.7511160714286  13.39453125 15.8247767857143  C 13.46484375 15.8984375  13.5 15.9925595238095  13.5 16.1071428571429  L 13.5 16.8928571428571  C 13.5 17.0074404761905  13.46484375 17.1015625  13.39453125 17.1752232142857  C 13.32421875 17.2488839285714  13.234375 17.2857142857143  13.125 17.2857142857143  L 4.875 17.2857142857143  C 4.765625 17.2857142857143  4.67578125 17.2488839285714  4.60546875 17.1752232142857  C 4.53515625 17.1015625  4.5 17.0074404761905  4.5 16.8928571428571  L 4.5 16.1071428571429  C 4.5 15.9925595238095  4.53515625 15.8984375  4.60546875 15.8247767857143  C 4.67578125 15.7511160714286  4.765625 15.7142857142857  4.875 15.7142857142857  Z " fill-rule="nonzero" fill="#d7d7d7" stroke="none" transform="matrix(1 0 0 1 176 626 )" />
  </g>
</svg>