<?xml version="1.0" encoding="utf-8"?>
<svg version="1.1" xmlns:xlink="http://www.w3.org/1999/xlink" width="18px" height="22px" xmlns="http://www.w3.org/2000/svg">
  <g transform="matrix(1 0 0 1 -254 -627 )">
    <path d="M 10.2926682692308 5.64732142857143  C 10.8443509615385 6.26934523809524  11.1201923076923 7.02232142857143  11.1201923076923 7.90625  C 11.1201923076923 8.78199404761905  10.8443509615385 9.53087797619048  10.2926682692308 10.1529017857143  C 9.74098557692308 10.7749255952381  9.07932692307692 11.0859375  8.30769230769231 11.0859375  C 7.53605769230769 11.0859375  6.87439903846154 10.7749255952381  6.32271634615385 10.1529017857143  C 5.77103365384615 9.53087797619048  5.49519230769231 8.78199404761905  5.49519230769231 7.90625  C 5.49519230769231 7.02232142857143  5.77103365384615 6.26934523809524  6.32271634615385 5.64732142857143  C 6.87439903846154 5.02529761904762  7.53605769230769 4.71428571428571  8.30769230769231 4.71428571428571  C 9.07932692307692 4.71428571428571  9.74098557692308 5.02529761904762  10.2926682692308 5.64732142857143  Z M 10.2548076923077 10.8465401785714  C 10.4350961538462 10.7196800595238  10.5504807692308 10.639880952381  10.6009615384615 10.6071428571429  C 10.9326923076923 10.6071428571429  11.2301682692308 10.6767113095238  11.4933894230769 10.8158482142857  C 11.7566105769231 10.9549851190476  11.9729567307692 11.1493675595238  12.1424278846154 11.3989955357143  C 12.3118990384615 11.6486235119048  12.4543269230769 11.9228050595238  12.5697115384615 12.2215401785714  C 12.6850961538462 12.520275297619  12.7716346153846 12.8517485119048  12.8293269230769 13.2159598214286  C 12.8870192307692 13.5801711309524  12.9284855769231 13.9177827380952  12.9537259615385 14.2287946428571  C 12.9789663461538 14.539806547619  12.9915865384615 14.8630952380952  12.9915865384615 15.1986607142857  C 12.9915865384615 15.7470238095238  12.8491586538462 16.2319568452381  12.5643028846154 16.6534598214286  C 12.2794471153846 17.074962797619  11.8990384615385 17.2857142857143  11.4230769230769 17.2857142857143  L 5.19230769230769 17.2857142857143  C 4.71634615384615 17.2857142857143  4.3359375 17.074962797619  4.05108173076923 16.6534598214286  C 3.76622596153846 16.2319568452381  3.62379807692308 15.7470238095238  3.62379807692308 15.1986607142857  C 3.62379807692308 14.8058035714286  3.64002403846154 14.4231770833333  3.67247596153846 14.05078125  C 3.70492788461538 13.6783854166667  3.77163461538462 13.2752976190476  3.87259615384615 12.8415178571429  C 3.97355769230769 12.4077380952381  4.10516826923077 12.0332961309524  4.26742788461539 11.7181919642857  C 4.4296875 11.403087797619  4.65685096153846 11.1391369047619  4.94891826923077 10.9263392857143  C 5.24098557692308 10.7135416666667  5.578125 10.6071428571429  5.96033653846154 10.6071428571429  L 6.01442307692308 10.6071428571429  C 6.06490384615385 10.639880952381  6.18028846153846 10.7196800595238  6.36057692307692 10.8465401785714  C 6.54086538461539 10.973400297619  6.66887019230769 11.059337797619  6.74459134615385 11.1043526785714  C 6.8203125 11.1493675595238  6.93930288461539 11.2189360119048  7.1015625 11.3130580357143  C 7.26382211538462 11.4071800595238  7.39723557692308 11.47265625  7.50180288461539 11.5094866071429  C 7.60637019230769 11.5463169642857  7.73257211538462 11.5831473214286  7.88040865384615 11.6199776785714  C 8.02824519230769 11.6568080357143  8.17067307692308 11.6752232142857  8.30769230769231 11.6752232142857  C 8.44471153846154 11.6752232142857  8.58713942307692 11.6568080357143  8.73497596153846 11.6199776785714  C 8.8828125 11.5831473214286  9.00901442307692 11.5463169642857  9.11358173076923 11.5094866071429  C 9.21814903846154 11.47265625  9.3515625 11.4071800595238  9.51382211538462 11.3130580357143  C 9.67608173076923 11.2189360119048  9.79507211538462 11.1493675595238  9.87079326923077 11.1043526785714  C 9.94651442307692 11.059337797619  10.0745192307692 10.973400297619  10.2548076923077 10.8465401785714  Z M 18 5.10714285714286  L 18 7.46428571428571  C 18 7.57068452380952  17.9657451923077 7.66276041666667  17.8972355769231 7.74051339285714  C 17.8287259615385 7.81826636904762  17.7475961538462 7.85714285714286  17.6538461538462 7.85714285714286  L 16.6153846153846 7.85714285714286  L 16.6153846153846 9.42857142857143  L 17.6538461538462 9.42857142857143  C 17.7475961538462 9.42857142857143  17.8287259615385 9.46744791666667  17.8972355769231 9.54520089285714  C 17.9657451923077 9.62295386904762  18 9.71502976190476  18 9.82142857142857  L 18 12.1785714285714  C 18 12.2849702380952  17.9657451923077 12.3770461309524  17.8972355769231 12.4547991071429  C 17.8287259615385 12.5325520833333  17.7475961538462 12.5714285714286  17.6538461538462 12.5714285714286  L 16.6153846153846 12.5714285714286  L 16.6153846153846 14.1428571428571  L 17.6538461538462 14.1428571428571  C 17.7475961538462 14.1428571428571  17.8287259615385 14.1817336309524  17.8972355769231 14.2594866071429  C 17.9657451923077 14.3372395833333  18 14.4293154761905  18 14.5357142857143  L 18 16.8928571428571  C 18 16.999255952381  17.9657451923077 17.0913318452381  17.8972355769231 17.1690848214286  C 17.8287259615385 17.246837797619  17.7475961538462 17.2857142857143  17.6538461538462 17.2857142857143  L 16.6153846153846 17.2857142857143  L 16.6153846153846 20.0357142857143  C 16.6153846153846 20.5758928571429  16.4459134615385 21.038318452381  16.1069711538462 21.4229910714286  C 15.7680288461538 21.8076636904762  15.3605769230769 22  14.8846153846154 22  L 1.73076923076923 22  C 1.25480769230769 22  0.847355769230769 21.8076636904762  0.508413461538462 21.4229910714286  C 0.169471153846154 21.038318452381  0 20.5758928571429  0 20.0357142857143  L 0 1.96428571428571  C 0 1.42410714285714  0.169471153846154 0.961681547619046  0.508413461538462 0.577008928571429  C 0.847355769230769 0.19233630952381  1.25480769230769 0  1.73076923076923 0  L 14.8846153846154 0  C 15.3605769230769 0  15.7680288461538 0.19233630952381  16.1069711538462 0.577008928571429  C 16.4459134615385 0.961681547619046  16.6153846153846 1.42410714285714  16.6153846153846 1.96428571428571  L 16.6153846153846 4.71428571428571  L 17.6538461538462 4.71428571428571  C 17.7475961538462 4.71428571428571  17.8287259615385 4.75316220238095  17.8972355769231 4.83091517857143  C 17.9657451923077 4.90866815476191  18 5.00074404761905  18 5.10714285714286  Z M 15.1280048076923 20.3119419642857  C 15.1965144230769 20.2341889880952  15.2307692307692 20.1421130952381  15 20.0357142857143  L 15 1.96428571428571  C 15.2307692307692 1.8578869047619  15.1965144230769 1.76581101190476  15.1280048076923 1.68805803571429  C 15.0594951923077 1.61030505952381  14.9783653846154 1.57142857142857  14.8846153846154 2  L 1.73076923076923 2  C 1.63701923076923 1.57142857142857  1.55588942307692 1.61030505952381  1.48737980769231 1.68805803571429  C 1.41887019230769 1.76581101190476  1.38461538461538 1.8578869047619  1.38461538461538 1.96428571428571  L 1.38461538461538 20.0357142857143  C 1.38461538461538 20.1421130952381  1.41887019230769 20.2341889880952  1.48737980769231 20.3119419642857  C 1.55588942307692 20.3896949404762  1.63701923076923 20.4285714285714  1.73076923076923 20  L 14.8846153846154 20  C 14.9783653846154 20.4285714285714  15.0594951923077 20.3896949404762  15.1280048076923 20.3119419642857  Z " fill-rule="nonzero" fill="#d7d7d7" stroke="none" transform="matrix(1 0 0 1 254 627 )" />
  </g>
</svg>