<?xml version="1.0" encoding="utf-8"?>
<svg version="1.1" xmlns:xlink="http://www.w3.org/1999/xlink" width="122px" height="122px" xmlns="http://www.w3.org/2000/svg">
  <g transform="matrix(1 0 0 1 -127 -87 )">
    <path d="M 127 87  L 249 87  L 249 209  L 127 209  L 127 87  " fill-rule="nonzero" fill="#cccccc" stroke="none" />
    <path d="M 136 96  L 240 96  L 240 200  L 136 200  L 136 96  " fill-rule="nonzero" fill="#ffffff" stroke="none" />
    <path d="M 199.59 123.6  C 194.466 123.6  190.44 119.574  190.44 114.45  C 190.44 109.326  194.466 105.3  199.59 105.3  C 204.714 105.3  208.74 109.326  208.74 114.45  C 208.74 119.574  204.714 123.6  199.59 123.6  " fill-rule="nonzero" fill="#cccccc" stroke="none" />
    <path d="M 139 197  L 139 143.1  L 163.5 118.6  L 197.8 138.2  L 217.4 133.3  L 237 138.2  L 237 197  L 139 197  " fill-rule="nonzero" fill="#169bd5" stroke="none" />
  </g>
</svg>